<svg viewBox="0 0 958.09 731"><title>logo_holo</title><path d="M29,411.94h0v.75C28.91,412.44,28.93,412.19,29,411.94Z" transform="translate(-28.91 -142.07)" fill="#1d1d1b"/><polygon points="167.34 135.32 167.34 135.32 167.34 135.32 167.34 135.32" fill="#1d1d1b"/><path d="M980.87,421.39,859.16,492.11a33.17,33.17,0,0,1-30,0l-122.5-70.72c-4.14-2.39-6.21-5.54-6.23-8.69s2-6.29,6.13-8.68l112-65.08V277.46c0,3.12-2.06,6.24-6.14,8.61l-121.7,70.72a33.11,33.11,0,0,1-30,0L538.25,286.07c-4.13-2.39-6.22-5.54-6.23-8.69s2-6.29,6.13-8.68l112-65.08V142.07h0c0,3.15-2,6.29-6.14,8.68L522.3,221.48a33.17,33.17,0,0,1-30,0l-122.5-70.73c-4.14-2.39-6.22-5.53-6.23-8.68h0v61.4l113,65.23c4.14,2.39,6.22,5.54,6.24,8.69s-2,6.29-6.14,8.68L355,356.8a33.17,33.17,0,0,1-30,0l-122.5-70.73c-4.14-2.39-6.22-5.53-6.23-8.68v61.4l113,65.23c4.14,2.39,6.21,5.53,6.23,8.68s-2,6.3-6.13,8.69l-121.7,70.72a33.19,33.19,0,0,1-30,0L35.14,421.39c-4.13-2.39-6.21-5.53-6.23-8.68V594.25h0c0,3.15,2.1,6.3,6.23,8.69l122.5,70.72a33.19,33.19,0,0,0,30,0l9.17-5.33v23.93h0c0,3.15,2.09,6.29,6.23,8.68l122.5,70.73a33.17,33.17,0,0,0,30,0l10.27-6v24.38h0c0,3.15,2.09,6.3,6.23,8.69L494.5,869.49a33.19,33.19,0,0,0,30,0l121.7-70.73c4.11-2.38,6.15-5.53,6.14-8.68V766.49l9,5.18a33.19,33.19,0,0,0,30,0L813,700.94c4.11-2.39,6.15-5.53,6.13-8.68V667.85l10.07,5.81a33.17,33.17,0,0,0,30,0l121.71-70.73c4.11-2.38,6.15-5.53,6.13-8.68V412.7C987,415.85,985,419,980.87,421.39Zm-334.68,263-121.7,70.72a33.19,33.19,0,0,1-30,0L372,684.41c-4.14-2.39-6.22-5.54-6.23-8.69s2-6.29,6.13-8.68l121.7-70.73a33.19,33.19,0,0,1,30,0L646.09,667c4.14,2.39,6.22,5.53,6.24,8.68S650.3,682,646.19,684.41ZM813.53,541.48,691.83,612.2a33.19,33.19,0,0,1-30,0l-114-65.79-24.49,14.23a33.11,33.11,0,0,1-30,0L468.73,546.4,355.51,612.2a33.19,33.19,0,0,1-30,0L203,541.48c-4.14-2.39-6.22-5.54-6.24-8.69s2-6.29,6.14-8.68l121.7-70.73a33.19,33.19,0,0,1,30,0l24.66,14.24,113.23-65.8a33.15,33.15,0,0,1,30,0l114,65.79L661,453.38a33.17,33.17,0,0,1,30,0l122.5,70.73c4.14,2.39,6.21,5.53,6.23,8.68S817.64,539.09,813.53,541.48Z" transform="translate(-28.91 -142.07)" fill="#1d1d1b"/><path d="M987,411.94a6.61,6.61,0,0,1,0,.76v-.76Z" transform="translate(-28.91 -142.07)" fill="#1d1d1b"/></svg>